<?xml version="1.0" encoding="UTF-8"?>
<!-- Uploaded to: SVG Repo, www.svgrepo.com, Generator: SVG Repo Mixer Tools -->
<svg fill="#000000" width="800px" height="800px" version="1.1" viewBox="144 144 512 512" xmlns="http://www.w3.org/2000/svg">
 <path d="m596.8 549.81c-0.042969-0.77344-0.19531-1.5352-0.45703-2.2617-0.79297-2.582-2.8867-4.5586-5.5117-5.1953-9.0469-4.3359-17.672-8.9414-25.977-13.723v0.003907c0.28125-0.78516 0.4375-1.6094 0.45703-2.4414v-31.188l16.586-16.586v-0.003906c2.9805-3.0859 2.9414-7.9961-0.097657-11.035-3.0352-3.0352-7.9453-3.0781-11.035-0.09375l-5.4531 5.4531v-9.2227l16.586-16.586v-0.003906c2.9805-3.0859 2.9414-7.9961-0.097657-11.035-3.0352-3.0352-7.9453-3.0781-11.035-0.09375l-5.4531 5.4531v-9.5234c0-4.3477-3.5273-7.8711-7.875-7.8711s-7.8711 3.5234-7.8711 7.8711v9.5234l-5.457-5.457 0.003906 0.003906c-3.0898-2.9844-8-2.9414-11.035 0.09375-3.0391 3.0391-3.082 7.9492-0.097656 11.035l16.586 16.59v9.2266l-5.457-5.457h0.003906c-3.0898-2.9844-8-2.9414-11.035 0.09375-3.0391 3.0391-3.082 7.9492-0.097656 11.035l16.586 16.59v24.402c-16.391-10.438-32.043-21.988-46.848-34.574 34.434-30.527 10.461-87.184 9.4453-89.59l0.003907-0.003906c-1.5039-3.4688-5.2617-5.3789-8.9492-4.5469-3.6914 0.82813-6.2695 4.1641-6.1406 7.9414v1.7773c-2.9805-13.078-9.4805-25.094-18.801-34.742-9.3242-9.6484-21.105-16.562-34.078-19.992-3.3086-0.73828-6.7188 0.75391-8.4219 3.6875-1.7344 2.9062-1.418 6.5938 0.78516 9.1602 6.0273 8.5742 8.9531 18.938 8.3047 29.395-1.1289-2.6094-1.8789-5.3711-2.2344-8.1953-0.29297-3.5977-3-6.5352-6.5664-7.1211-3.5664-0.63281-7.0938 1.2891-8.5 4.6289-3.0352 6.8398-5.1797 14.043-6.375 21.434l-6.1719-7.668c-25.844-32.141-42.918-53.371-62.188-53.371h-0.003906c-6.6797 0.29688-13.164 2.3359-18.812 5.9102-1.457-4.8633-3.1914-9.6445-5.1953-14.309-1.4336-3.3125-4.9336-5.2227-8.4922-4.6445-3.5586 0.58203-6.2695 3.5078-6.5742 7.0977-0.92578 7.9141-4.082 15.398-9.1016 21.586-1.2188-14.508-0.92969-38.855 11.934-53.695 2.2227-2.5586 2.5547-6.25 0.83203-9.168-1.7266-2.9141-5.125-4.3984-8.4375-3.6875-20.727 5.4648-39.148 17.449-52.535 34.191-13.391 16.738-21.039 37.34-21.812 58.762-2.9844-6.8438-4.2852-14.301-3.7969-21.75 0.13281-3.7812-2.4453-7.1172-6.1367-7.9492-3.6914-0.83203-7.4492 1.0781-8.9531 4.5508-1.4336 3.3125-34.637 81.641 13.027 122.88v-0.003906c3.293 2.7969 8.2188 2.418 11.047-0.84766 2.8242-3.2656 2.4961-8.1953-0.74219-11.055-23.035-19.941-22.043-52.742-17.32-76.32l0.003907 0.003906c3.9766 7.5664 10.344 13.613 18.105 17.199 2.5195 0.96484 5.3555 0.56641 7.5195-1.0469 2.1602-1.6133 3.3438-4.2227 3.1367-6.9102-4.1953-53.246 23.066-77.934 42.738-88.734-5.4219 19.121-6.2812 39.25-2.5117 58.766 0.46875 2.2617 1.9102 4.2031 3.9414 5.3125 2.0273 1.1055 4.4414 1.2656 6.6016 0.43359 8.3828-3.293 15.422-9.3086 19.984-17.074 6.0547 29.637-6.8711 43.738-7.4961 44.391h0.003906c-1.7305 1.7305-2.5547 4.168-2.2344 6.5938 0.32031 2.4258 1.75 4.5664 3.8711 5.7891 3.8164 2.1211 8.1953 3.0156 12.539 2.5625s8.4414-2.2344 11.738-5.0977c-2.2188 21.871-14.387 41.5-32.992 53.215-3.7031 2.1562-5 6.8789-2.918 10.625 2.0781 3.7461 6.7734 5.1367 10.562 3.1328 14.727-9.0781 26.445-22.305 33.688-38.02 7.2422-15.715 9.6836-33.215 7.0195-50.312-0.41797-3.3555-2.9336-6.0664-6.2461-6.7422-3.3164-0.67188-6.6875 0.84766-8.3828 3.7773-1.5 2.5-3.2305 4.8594-5.1641 7.043 3.4375-11.133 4.2461-22.91 2.3633-34.406 4.293-3.543 9.5391-5.7305 15.074-6.3008 11.762 0 28.613 20.957 49.957 47.492 32.109 39.941 78.902 98 153.7 141.07h-242.95v-31.488c0-4.3477-3.5234-7.8711-7.8711-7.8711s-7.8711 3.5234-7.8711 7.8711v31.488h-7.875v-47.23c0-4.3477-3.5234-7.8711-7.8711-7.8711-4.3477 0-7.8711 3.5234-7.8711 7.8711v47.23h-7.8711v-78.719c0-4.3477-3.5273-7.8711-7.875-7.8711-4.3477 0-7.8711 3.5234-7.8711 7.8711v78.719h-39.359c-4.3477 0-7.8711 3.5273-7.8711 7.875 0 4.3477 3.5234 7.8711 7.8711 7.8711h376.28c2.3047 0.59766 4.7578 0.070313 6.6133-1.4141 1.8594-1.4883 2.9102-3.7656 2.8359-6.1445-0.058593-0.11719 0-0.21094 0-0.32031zm-159.57-131.63c-1.1602-4.7148-1.4648-9.5938-0.89844-14.414 3.2383 3.7812 7.3672 6.6953 12.012 8.4766 2.1562 0.82812 4.5664 0.66406 6.5938-0.44141 2.0273-1.1094 3.4648-3.0508 3.9336-5.3125 2.3203-12.32 2.2344-24.977-0.26172-37.266 12.633 8.6211 26.938 25.633 24.402 57.953-0.21094 2.6914 0.97266 5.3047 3.1367 6.918 2.1641 1.6172 5 2.0117 7.5234 1.0508 4.2422-1.8945 7.957-4.8008 10.816-8.4648 2.2812 15.508 1.3789 34.637-12.516 46.688v0.003906c-0.35156 0.36719-0.66406 0.76953-0.92969 1.2031-19.176-17.574-37.156-36.418-53.812-56.395zm-209.59-107.69c0.69922-1.4102 17.508-34.504 43.918-43.297v0.003907c4.1289-1.375 8.5938 0.85938 9.9648 4.9883 1.375 4.1328-0.85938 8.5938-4.9883 9.9688-16.832 5.6133-30.836 27.473-34.801 35.426l-0.003906-0.003906c-1.9414 3.8906-6.6719 5.4688-10.562 3.5273-3.8906-1.9453-5.4727-6.6719-3.5273-10.566zm282.16 56.137c1.3711 4.1211-0.85547 8.5742-4.9727 9.9492-0.80078 0.27344-1.6445 0.41406-2.4883 0.41016-3.3867 0-6.3906-2.168-7.4648-5.375-5.9219-14.23-15.773-26.477-28.402-35.316-3.5859-2.4219-4.543-7.293-2.1367-10.895 2.4062-3.6016 7.2695-4.582 10.883-2.1953 15.547 10.758 27.578 25.863 34.582 43.422zm-228.11-3.4883h0.003906c-4.2383 19.5-4.2383 39.68 0 59.176 1.0508 4.2148-1.5156 8.4883-5.7305 9.5391-0.62891 0.15625-1.2695 0.23438-1.9141 0.23828-3.6094-0.003906-6.7539-2.4648-7.6289-5.9688-4.918-21.988-4.918-44.793 0-66.785 1.0508-4.2188 5.3203-6.7891 9.543-5.7383 4.2188 1.0508 6.7852 5.3203 5.7383 9.5391zm77.934-79.367v0.003906c-2.5352-4.5664-3.8125-9.7227-3.6953-14.945 0.11328-5.2227 1.6211-10.316 4.3594-14.766 1.9414-3.3477 4.7227-6.1328 8.0664-8.0742 4.4492-2.7422 9.5469-4.2461 14.77-4.3594 5.2227-0.11328 10.383 1.1641 14.949 3.7031 8.7422 5.0234 14.141 14.324 14.168 24.402 0 4.3477-3.5234 7.875-7.8711 7.875-4.3477 0-7.8711-3.5273-7.8711-7.875-0.011719-4.4414-2.3867-8.543-6.2344-10.766-4.4023-2.4336-9.793-2.1914-13.957 0.62109-0.97656 0.57031-1.7891 1.3828-2.3633 2.3594-2.8164 4.168-3.0586 9.5625-0.62891 13.965 2.2227 3.8516 6.3281 6.2305 10.777 6.2383h110.37c4.3477 0 7.875 3.5234 7.875 7.8711s-3.5273 7.8711-7.875 7.8711h-110.39c-10.078-0.015626-19.383-5.3945-24.418-14.121zm150.59 6.2617c0-4.3477 3.5234-7.8711 7.8711-7.8711h23.617c4.3477 0 7.8711 3.5234 7.8711 7.8711s-3.5234 7.8711-7.8711 7.8711h-23.617c-4.3477 0-7.8711-3.5234-7.8711-7.8711z"/>
</svg>